<svg xmlns="http://www.w3.org/2000/svg" xmlns:xlink="http://www.w3.org/1999/xlink" width="24" height="24" viewBox="0 0 24 24">
    <defs>
        <path id="a" d="M4.5 0h15A4.5 4.5 0 0 1 24 4.5v15a4.5 4.5 0 0 1-4.5 4.5h-15A4.5 4.5 0 0 1 0 19.5v-15A4.5 4.5 0 0 1 4.5 0z"/>
        <path id="c" d="M10.558 4.8l-.662 3.786-.528 3.002-.527 2.94c-.063.38-.105.74-.105 1.12 0 2.981 2.72 3.552 4.723 3.552.548 0 .928-.042 1.35-.106l.527-3.002h-.844c-1.328 0-2.087-.233-2.087-1.163 0-.148.021-.275.042-.444l.527-2.897.527-3.002.684-3.786h-3.627z"/>
    </defs>
    <g fill="none" fill-rule="evenodd">
        <mask id="b" fill="#fff">
            <use xlink:href="#a"/>
        </mask>
        <use fill="#FFF" fill-rule="nonzero" xlink:href="#a"/>
        <g mask="url(#b)">
            <path fill="#FFF" fill-rule="nonzero" d="M0 0h24v24H0z"/>
            <path fill="#FCD31B" fill-rule="nonzero" d="M0 24L18 0H0z"/>
            <use fill="#121212" xlink:href="#c"/>
        </g>
    </g>
</svg>